<svg id="instagram" xmlns="http://www.w3.org/2000/svg" width="20" height="20" viewBox="0 0 20 20">
  <path id="Path_399" data-name="Path 399" d="M31.445,23.88H25.485a1.728,1.728,0,0,0-1.726,1.726v5.961a1.728,1.728,0,0,0,1.726,1.726h5.961a1.728,1.728,0,0,0,1.726-1.726V25.606A1.728,1.728,0,0,0,31.445,23.88Zm-2.98,7.8a3.1,3.1,0,1,1,3.1-3.1A3.1,3.1,0,0,1,28.465,31.685Zm3.2-5.556A.733.733,0,1,1,32.4,25.4.734.734,0,0,1,31.663,26.128Z" transform="translate(-18.465 -18.559)" fill="#fff"/>
  <path id="Path_400" data-name="Path 400" d="M38.638,36.971a1.789,1.789,0,1,0,1.789,1.789A1.791,1.791,0,0,0,38.638,36.971Z" transform="translate(-28.638 -28.733)" fill="#fff"/>
  <path id="Path_401" data-name="Path 401" d="M10,0A10,10,0,1,0,20,10,10,10,0,0,0,10,0Zm6.015,13.007a3.038,3.038,0,0,1-3.035,3.035H7.02a3.038,3.038,0,0,1-3.035-3.035V7.047A3.038,3.038,0,0,1,7.02,4.012H12.98a3.038,3.038,0,0,1,3.035,3.035Z" fill="#fff"/>
</svg>
